<svg width="85" height="31" viewBox="0 0 327 74" fill="none" xmlns="http://www.w3.org/2000/svg">
<path d="M0.49859 72.0317L22.8536 1.24076H43.3961L66.0533 72.0317H47.3234L43.5975 58.9409H22.0481L18.3222 72.0317H0.49859ZM25.1697 44.9439H40.4759L32.8228 14.4322L25.1697 44.9439ZM131.01 73.0387C128.929 73.0387 126.848 72.7366 124.767 72.1324C122.686 71.5954 120.605 70.7227 118.523 69.5143C116.509 68.3059 114.428 66.7619 112.28 64.8822C110.132 62.9353 107.917 60.6193 105.634 57.934C103.419 55.2487 101.103 52.127 98.6858 48.569C98.283 48.6361 97.7124 48.6697 96.974 48.6697C96.3026 48.6697 95.732 48.6697 95.2621 48.6697C94.3894 48.6697 93.416 48.6697 92.3418 48.6697C91.2677 48.6697 90.2607 48.6361 89.3209 48.569V72.0317H72.2022V1.54285C76.163 1.27432 79.7881 1.07292 83.0776 0.938658C86.4342 0.804395 89.4887 0.703696 92.2411 0.63656C95.0607 0.569429 97.6453 0.535863 99.9949 0.535863C105.567 0.535863 110.3 0.972223 114.193 1.84494C118.154 2.65053 121.377 3.92604 123.86 5.67148C126.411 7.41692 128.258 9.69942 129.399 12.519C130.54 15.2714 131.111 18.5944 131.111 22.4881C131.111 26.4489 130.507 29.8727 129.298 32.7594C128.09 35.5789 126.344 37.895 124.062 39.7075C121.846 41.5201 119.228 42.9299 116.207 43.9369C117.953 46.0851 119.598 47.9313 121.142 49.4753C122.753 51.0193 124.23 52.3284 125.572 53.4025C126.982 54.4766 128.291 55.2822 129.5 55.8193C130.775 56.2892 131.983 56.5242 133.125 56.5242C133.326 56.5242 133.595 56.5242 133.93 56.5242C134.266 56.4571 134.534 56.4235 134.736 56.4235L134.837 72.7366C134.367 72.8038 133.83 72.8709 133.225 72.938C132.621 73.0052 131.883 73.0387 131.01 73.0387ZM99.7935 36.1831C102.143 36.1831 104.191 35.9817 105.936 35.5789C107.682 35.1761 109.091 34.5384 110.165 33.6656C111.307 32.7258 112.146 31.551 112.683 30.1412C113.287 28.6643 113.589 26.8517 113.589 24.7035C113.589 22.0853 113.186 20.0042 112.381 18.4602C111.575 16.849 110.199 15.6742 108.252 14.9357C106.372 14.1973 103.754 13.8281 100.398 13.8281C99.3236 13.8281 98.3837 13.8281 97.5782 13.8281C96.8397 13.8281 96.0677 13.8616 95.2621 13.9288C94.5236 13.9288 93.6845 13.9623 92.7446 14.0295C91.8048 14.0966 90.6635 14.1637 89.3209 14.2309V35.881C90.3279 35.9481 91.2342 36.0153 92.0397 36.0824C92.8453 36.0824 93.6509 36.116 94.4565 36.1831C95.2621 36.1831 96.0677 36.1831 96.8733 36.1831C97.746 36.1831 98.7194 36.1831 99.7935 36.1831ZM142.416 72.0317V1.54285H192.966V16.0434H159.434V29.3356H190.449V43.0306H159.434V57.6319H194.779V72.0317H142.416ZM202.795 72.0317V1.44215H218.907L245.592 45.7495V1.54285H260.697V72.1324H244.585L218.001 28.7314V72.0317H202.795ZM326.309 16.5469H305.565V72.0317H288.547V16.5469H267.803V1.54285H326.309V16.5469Z" />
</svg>
