<svg width="34" height="34" viewBox="0 0 132 132" fill="none" xmlns="http://www.w3.org/2000/svg">
<path d="M106.577 109.533L81.0706 84.027C76.7157 79.6721 76.7157 72.6115 81.0706 68.2566L113.255 36.0721L118.264 41.0808C113.875 45.8405 104.232 58.0067 100.768 68.5944C97.3034 79.1821 110.516 92.9798 117.555 98.5552L106.577 109.533Z" fill="#316BFE"/>
<path d="M25.1054 109.533L50.6116 84.027C54.9665 79.6721 54.9665 72.6115 50.6116 68.2566L18.4272 36.0721L13.4185 41.0808C17.8071 45.8405 27.4505 58.0067 30.9146 68.5944C34.3788 79.1821 21.1666 92.9798 14.1274 98.5552L25.1054 109.533Z" fill="#316BFE"/>
<path fill-rule="evenodd" clip-rule="evenodd" d="M0 66C3.17897e-06 29.6369 29.4781 0.158719 65.8413 0.158722C102.204 0.158725 131.683 29.6369 131.683 66C131.683 102.363 102.204 131.841 65.8413 131.841C29.4781 131.841 -3.17897e-06 102.363 0 66ZM65.8408 116.877C93.9396 116.877 116.718 94.0988 116.718 66C116.718 37.9013 93.9396 15.1227 65.8408 15.1227C37.7421 15.1227 14.9635 37.9013 14.9635 66C14.9635 94.0988 37.7421 116.877 65.8408 116.877Z" fill="#316BFE"/>
<path d="M95.7692 74.58C95.7692 81.4115 90.2311 86.9496 83.3996 86.9496L45.2902 86.9496C38.4587 86.9495 32.9207 81.4115 32.9207 74.58L32.9207 68.6593C32.9207 57.2734 42.1508 48.0433 53.5366 48.0434L75.1532 48.0434C86.5391 48.0434 95.7692 57.2734 95.7692 68.6593L95.7692 74.58Z" fill="#316BFE"/>
</svg>
