<svg width="22" height="22" viewBox="0 0 22 22" fill="none" xmlns="http://www.w3.org/2000/svg">
<path fill-rule="evenodd" clip-rule="evenodd" d="M10.2915 0.0190571C7.71964 0.168333 5.23168 1.26895 3.34765 3.09083C1.54087 4.83809 0.414337 7.0699 0.0767257 9.57096C-0.014522 10.2472 -0.0266383 11.5847 0.05254 12.2475C0.202584 13.5035 0.565837 14.7191 1.13572 15.8722L1.51147 16.6326L0.756129 18.7117C0.145056 20.3936 0.000787677 20.8372 0.000787677 21.034C0.000787677 21.5765 0.420348 21.9974 0.963702 22C1.15982 22.0009 1.59483 21.8593 3.2858 21.2442L5.36651 20.4872L6.12701 20.8629C7.27242 21.4289 8.49518 21.7955 9.72869 21.9428C10.3743 22.02 11.7632 22.0089 12.429 21.9213C16.7934 21.3471 20.3917 18.235 21.6053 13.9849C21.7308 13.5455 21.8751 12.8175 21.9451 12.271C22.019 11.6936 22.0181 10.3117 21.9434 9.71183C21.5033 6.17659 19.4749 3.14915 16.3622 1.38188C14.6002 0.381423 12.4325 -0.105191 10.2915 0.0190571Z"/>
</svg>
