<svg width="12" height="16" viewBox="0 0 12 16" fill="none" xmlns="http://www.w3.org/2000/svg">
<path fill-rule="evenodd" clip-rule="evenodd" d="M5.4012 0.0244529C3.16106 0.281396 1.27752 1.71295 0.445763 3.79075C-0.632851 6.48523 0.296764 9.54216 2.68525 11.155C3.71599 11.851 4.75492 12.1658 6.01741 12.1647C6.84119 12.164 7.46812 12.0465 8.18955 11.7575C10.9262 10.6615 12.4703 7.75597 11.872 4.82828C11.4259 2.64562 9.77281 0.844989 7.65037 0.229907C7.00452 0.0427412 6.02326 -0.0468872 5.4012 0.0244529ZM6.23912 1.8355C6.29326 1.86901 6.35814 1.92875 6.38328 1.96824C6.40842 2.00775 6.60601 2.59223 6.8224 3.26711L7.21575 4.49415H8.50677C9.93355 4.49415 9.93758 4.49465 10.0773 4.69338C10.1662 4.81984 10.1729 5.09488 10.09 5.21868C10.0593 5.2647 9.57054 5.644 9.00396 6.06157C8.43742 6.47913 7.97388 6.83333 7.97388 6.84871C7.97388 6.86406 8.14718 7.41446 8.35901 8.07181C8.58663 8.77818 8.74408 9.31701 8.74401 9.38935C8.74371 9.71498 8.37343 9.94507 8.09055 9.79532C8.04459 9.771 7.5563 9.41846 7.00547 9.01189L6.00394 8.27267L5.00276 9.01071C4.45208 9.41661 3.9629 9.76916 3.9157 9.79413C3.63101 9.94482 3.2603 9.71638 3.25999 9.3901C3.25993 9.31876 3.41907 8.7743 3.645 8.07303C3.85682 7.41556 4.03013 6.86419 4.03013 6.84781C4.03013 6.83143 3.56607 6.47616 2.99887 6.05838C2.43165 5.64056 1.94294 5.26188 1.9128 5.21687C1.83116 5.09494 1.83849 4.81887 1.9267 4.69338C2.06643 4.49465 2.07043 4.49415 3.49745 4.49415H4.78866L5.18343 3.26799C5.40055 2.59357 5.60017 2.00778 5.62704 1.9662C5.74816 1.77866 6.04483 1.71529 6.23912 1.8355ZM1.84259 13.6621C1.84259 15.5587 1.84407 15.6068 1.90606 15.7367C2.04052 16.0186 2.466 15.9266 2.7481 15.7927C3.10159 15.6249 3.62985 15.3703 4.19189 15.0861L6.002 14.1707L7.81212 15.0861C8.37417 15.3703 8.90243 15.6249 9.25591 15.7927C9.53801 15.9266 9.96348 16.0186 10.098 15.7367C10.1599 15.6068 10.1614 15.5587 10.1614 13.664V11.7244L9.8148 11.9573C8.69626 12.7091 7.34349 13.1225 6.002 13.1225C4.6628 13.1225 3.28554 12.7011 2.18921 11.956L1.84259 11.7204V13.6621Z" fill="#EF4D2A"/>
</svg>
