<svg width="12" height="15" viewBox="0 0 12 15" fill="none" xmlns="http://www.w3.org/2000/svg">
<path fill-rule="evenodd" clip-rule="evenodd" d="M5.44647 0.0263705C5.04757 0.0619227 4.62538 0.172979 4.27584 0.334402C4.02745 0.449066 3.94208 0.509112 3.70363 0.73674C3.46095 0.968387 3.40193 1.04568 3.26396 1.31232C2.96387 1.89228 2.85158 2.4822 2.84523 3.51234C2.84076 4.23872 2.8702 4.45649 3.0428 4.97353C3.52027 6.40383 4.67983 7.32569 6.00145 7.32569C7.49974 7.32569 8.77005 6.1405 9.10532 4.42977C9.14997 4.20203 9.1607 4.01021 9.15749 3.49767C9.15114 2.48276 9.03746 1.8892 8.73894 1.31232C8.60097 1.04568 8.54196 0.968387 8.29928 0.73674C8.06082 0.509112 7.97545 0.449066 7.72706 0.334402C7.10903 0.0490159 6.34727 -0.0538567 5.44647 0.0263705ZM3.79695 7.70855C3.21275 7.82331 2.55969 8.00368 2.16134 8.16029C1.31725 8.49214 0.778241 8.96221 0.469457 9.63571C0.190889 10.2433 0.0759154 10.9559 0.0195542 12.4242C-0.0185851 13.418 -0.0340937 13.3503 0.299202 13.6438C1.01482 14.2742 2.22492 14.6932 3.90524 14.8925C5.41447 15.0716 7.56748 15.0224 8.88426 14.7788C10.1976 14.5358 11.1064 14.17 11.7037 13.6438C12.0317 13.3549 12.0169 13.4174 11.9832 12.4682C11.9369 11.1637 11.879 10.6932 11.6846 10.0443C11.5431 9.57217 11.347 9.22771 11.0401 8.91234C10.4839 8.34072 9.65413 7.99154 8.17709 7.70747L7.74606 7.62457L7.59322 7.75531C7.41921 7.90415 7.02998 8.09309 6.75684 8.16129C6.47041 8.2328 6.03561 8.26307 5.71625 8.23371C5.55938 8.21928 5.34781 8.18669 5.24606 8.16129C4.97117 8.09265 4.5833 7.90383 4.40644 7.75253C4.32061 7.6791 4.24547 7.62008 4.23949 7.6214C4.23351 7.62272 4.03436 7.66194 3.79695 7.70855Z" fill="#316BFE"/>
</svg>
